<svg width="36" height="36" viewBox="0 0 36 36" fill="none" xmlns="http://www.w3.org/2000/svg">
<path d="M11.7782 5.62488C11.2134 5.62454 10.6552 5.74548 10.1412 5.97953C9.62719 6.21358 9.16946 6.55527 8.79893 6.9815C5.98523 9.80149 5.15921 12.9742 5.86148 16.1654C6.54209 19.2515 8.61177 22.1875 11.2074 24.7847C13.8061 27.3819 16.7404 29.4532 19.8233 30.1354C23.0129 30.8408 26.1885 30.0225 29.0115 27.2195C29.4393 26.8485 29.7824 26.3898 30.0176 25.8747C30.2528 25.3595 30.3746 24.7999 30.3748 24.2336C30.3749 23.6673 30.2534 23.1076 30.0185 22.5923C29.7835 22.077 29.4407 21.6182 29.0131 21.247L27.1414 19.3752C26.3612 18.5959 25.3036 18.1582 24.2008 18.1582C23.0981 18.1582 22.0405 18.5959 21.2603 19.3752L20.3059 20.3312C20.1901 20.447 20.0527 20.5389 19.9014 20.6015C19.7501 20.6642 19.5879 20.6965 19.4242 20.6965C19.2604 20.6965 19.0983 20.6642 18.947 20.6015C18.7957 20.5389 18.6583 20.447 18.5425 20.3312L15.6746 17.4617C15.4411 17.2277 15.31 16.9106 15.31 16.58C15.31 16.2494 15.4411 15.9323 15.6746 15.6982L16.6306 14.7392C17.4104 13.9589 17.8484 12.9009 17.8484 11.7978C17.8484 10.6946 17.4104 9.63663 16.6306 8.85634L14.7589 6.98305C14.3877 6.55712 13.9297 6.21556 13.4155 5.9813C12.9014 5.74705 12.3431 5.62552 11.7782 5.62488Z" fill="#F9F9FC"/>
</svg>
