<svg width="393" height="852" viewBox="0 0 393 852" fill="none" xmlns="http://www.w3.org/2000/svg">
  <defs>
    <clipPath id="phone1"><rect width="393" height="852" rx="44"/></clipPath>
  </defs>
  <rect width="393" height="852" rx="44" fill="#1A1A2E"/>
  <g clip-path="url(#phone1)">
    <rect width="393" height="852" fill="#F8F5EF"/>

    <!-- Status bar -->
    <text x="36" y="44" font-family="PingFang SC, sans-serif" font-size="15" font-weight="600" fill="#000">9:41</text>
    <g transform="translate(316,32)">
      <rect x="0" y="7" width="3" height="5" rx=".5" fill="#000"/><rect x="4" y="4" width="3" height="8" rx=".5" fill="#000"/><rect x="8" y="2" width="3" height="10" rx=".5" fill="#000"/><rect x="12" y="0" width="3" height="12" rx=".5" fill="#000"/>
    </g>
    <g transform="translate(338,32)"><path d="M8 2.5C10.7 2.5 13 3.8 14.5 6L13 7.5C11.8 5.8 10 4.5 8 4.5C6 4.5 4.2 5.8 3 7.5L1.5 6C3 3.8 5.3 2.5 8 2.5Z" fill="#000"/><circle cx="8" cy="10" r="1.5" fill="#000"/></g>
    <g transform="translate(358,32)"><rect x="0" y="1" width="21" height="10" rx="2" stroke="#000" stroke-width="1" fill="none"/><rect x="22" y="4" width="2" height="4" rx=".5" fill="#000"/><rect x="1.5" y="2.5" width="18" height="7.5" rx="1" fill="#000"/></g>

    <!-- Top bar -->
    <path d="M28 74L22 80L28 86" stroke="#282737" stroke-width="2" stroke-linecap="round" stroke-linejoin="round" fill="none"/>
    <text x="52" y="84" font-family="PingFang SC, sans-serif" font-size="17" font-weight="500" fill="#282737">亲子互动空间</text>

    <!-- Header -->
    <text x="24" y="130" font-family="PingFang SC, sans-serif" font-size="22" font-weight="600" fill="#282737">🌱 糯糯的成长旅程</text>
    <text font-family="PingFang SC, sans-serif" font-size="14" fill="#424245">
      <tspan x="24" y="156">正在进行 </tspan><tspan fill="#7168D6" font-weight="600">2</tspan><tspan> 个互动活动</tspan>
    </text>

    <!-- Section label -->
    <text x="24" y="196" font-family="PingFang SC, sans-serif" font-size="13" fill="rgba(53,46,38,0.35)">进行中</text>

    <!-- ═══ CARD 1: SWIPED ═══ -->
    <!-- Swipe actions behind -->
    <rect x="223" y="216" width="152" height="120" rx="0" fill="none"/>
    <rect x="223" y="216" width="70" height="120" fill="#7168D6"/>
    <rect x="293" y="216" width="84" height="120" rx="0 20 20 0" fill="#E05050"/>
    <!-- Round the right corners -->
    <rect x="353" y="216" width="24" height="120" rx="20" fill="#E05050"/>

    <!-- Edit icon + text -->
    <g transform="translate(243,256)">
      <path d="M14.5 3.5l2 2-9 9H5.5v-2l9-9z" stroke="#fff" stroke-width="1.5" stroke-linecap="round" stroke-linejoin="round" fill="none"/>
      <path d="M13 5l2 2" stroke="#fff" stroke-width="1.5" stroke-linecap="round" fill="none"/>
    </g>
    <text x="258" y="296" font-family="PingFang SC, sans-serif" font-size="12" fill="#fff" text-anchor="middle">编辑</text>

    <!-- Stop icon + text -->
    <g transform="translate(318,256)">
      <rect x="4" y="4" width="12" height="12" rx="2" stroke="#fff" stroke-width="1.5" fill="none"/>
    </g>
    <text x="334" y="296" font-family="PingFang SC, sans-serif" font-size="12" fill="#fff" text-anchor="middle">停止</text>

    <!-- Card 1 (shifted left) -->
    <rect x="-124" y="216" width="345" height="120" rx="20" fill="#fff"/>
    <!-- Star icon -->
    <rect x="-108" y="232" width="48" height="48" rx="14" fill="#1A1535"/>
    <text x="-84" y="264" font-family="PingFang SC, sans-serif" font-size="24" text-anchor="middle">🌟</text>
    <!-- Text -->
    <text x="-44" y="252" font-family="PingFang SC, sans-serif" font-size="16" font-weight="500" fill="#282737">种星星</text>
    <text x="-44" y="272" font-family="PingFang SC, sans-serif" font-size="13" fill="#424245">睡前亲子情绪表达互动</text>
    <!-- Green dot -->
    <circle cx="206" cy="264" r="4" fill="#52C97A"/>
    <!-- Tags -->
    <rect x="-44" y="286" width="132" height="22" rx="11" fill="#EFEEFC"/>
    <text x="-36" y="301" font-family="PingFang SC, sans-serif" font-size="11" fill="#7168D6">⏰ 每晚 20:00 ~ 21:00</text>
    <rect x="96" y="286" width="62" height="22" rx="11" fill="rgba(82,201,122,0.1)"/>
    <text x="104" y="301" font-family="PingFang SC, sans-serif" font-size="11" fill="#2EA44F">本周 3 次</text>

    <!-- ═══ CARD 2: Normal ═══ -->
    <rect x="16" y="348" width="361" height="120" rx="20" fill="#fff"/>
    <!-- Book icon -->
    <rect x="32" y="364" width="48" height="48" rx="14" fill="#2D5A27"/>
    <text x="56" y="396" font-family="PingFang SC, sans-serif" font-size="24" text-anchor="middle">📖</text>
    <!-- Text -->
    <text x="96" y="384" font-family="PingFang SC, sans-serif" font-size="16" font-weight="500" fill="#282737">睡前故事</text>
    <text x="96" y="404" font-family="PingFang SC, sans-serif" font-size="13" fill="#424245">每天讲一个故事，培养想象力</text>
    <!-- Green dot -->
    <circle cx="354" cy="396" r="4" fill="#52C97A"/>
    <!-- Tags -->
    <rect x="96" y="418" width="132" height="22" rx="11" fill="#EFEEFC"/>
    <text x="104" y="433" font-family="PingFang SC, sans-serif" font-size="11" fill="#7168D6">⏰ 每晚 19:30 ~ 20:00</text>
    <rect x="236" y="418" width="62" height="22" rx="11" fill="rgba(82,201,122,0.1)"/>
    <text x="244" y="433" font-family="PingFang SC, sans-serif" font-size="11" fill="#2EA44F">本周 5 次</text>

    <!-- Explore -->
    <text x="196" y="502" font-family="PingFang SC, sans-serif" font-size="14" fill="#7168D6" text-anchor="middle">探索更多活动  ›</text>

    <!-- Home indicator -->
    <rect x="130" y="836" width="134" height="5" rx="2.5" fill="#000" opacity=".12"/>
  </g>
</svg>
