<svg width="104" height="40" viewBox="0 0 104 40" fill="none" xmlns="http://www.w3.org/2000/svg">
<rect width="40" height="40" rx="20" fill="#1FB4CF"/>
<g clip-path="url(#clip0_1800_13015)">
<path d="M21.3552 15.1975C21.728 14.79 22.3606 14.762 22.768 15.1348L25.4442 17.5837C25.8517 17.9565 25.8798 18.5891 25.5069 18.9965L17.1345 28.1463C16.8423 28.4655 16.4545 28.6814 16.0293 28.7615L13.3861 29.2595C12.731 29.383 12.1408 28.8429 12.2057 28.1794L12.4677 25.5026C12.5099 25.0719 12.6906 24.6665 12.9827 24.3472L21.3552 15.1975Z" fill="#F9F9FC"/>
<rect x="25.196" y="11" width="5.62758" height="3.75172" rx="1" transform="rotate(42.46 25.196 11)" fill="#F9F9FC"/>
</g>
<rect x="48" width="40" height="40" rx="20" fill="#F8837C"/>
<path d="M66.001 15.5C65.5909 15.4991 65.2237 15.6444 64.9336 15.9355C64.6447 16.2256 64.5 16.5913 64.5 17V24C64.5 24.4095 64.6444 24.7762 64.9346 25.0664C65.2246 25.3564 65.5909 25.4997 66 25.499C66.4095 25.499 66.7762 25.3556 67.0664 25.0654C67.3204 24.8115 67.4622 24.4989 67.4932 24.1504L67.5 23.999V17C67.5 16.5905 67.3552 16.2234 67.0645 15.9336C66.7747 15.645 66.4091 15.501 66.001 15.5ZM70.001 15.5C69.5909 15.4991 69.2237 15.6444 68.9336 15.9355C68.6447 16.2256 68.5 16.5913 68.5 17V24C68.5 24.4095 68.6444 24.7762 68.9346 25.0664C69.2246 25.3564 69.5909 25.4997 70 25.499C70.4095 25.499 70.7762 25.3556 71.0664 25.0654C71.3204 24.8115 71.4622 24.4989 71.4932 24.1504L71.5 23.999V17C71.5 16.5905 71.3552 16.2234 71.0645 15.9336C70.7747 15.645 70.4091 15.501 70.001 15.5ZM61.5 13.5H61C60.8431 13.5 60.7354 13.4523 60.6426 13.3594C60.5487 13.2652 60.5004 13.156 60.5 12.999C60.4996 12.844 60.5467 12.7363 60.6406 12.6426C60.7358 12.5477 60.8449 12.5 61 12.5H65.5V12C65.5 11.8431 65.5477 11.7354 65.6406 11.6426C65.7112 11.5722 65.7904 11.5268 65.8916 11.5088L66.001 11.5H70C70.1571 11.5 70.2656 11.5478 70.3594 11.6416C70.4531 11.7353 70.5004 11.8433 70.5 11.999L70.499 12.5H75C75.1571 12.5 75.2656 12.5478 75.3594 12.6416C75.4531 12.7353 75.5004 12.8433 75.5 12.999C75.4996 13.1558 75.4517 13.2653 75.3574 13.3604C75.265 13.4534 75.1578 13.5007 75.002 13.5L74.5 13.498V27C74.5 27.4163 74.3579 27.7606 74.0596 28.0596C73.7616 28.358 73.4176 28.5004 73.001 28.5H63C62.5835 28.5 62.2396 28.3578 61.9414 28.0596C61.6432 27.7613 61.5005 27.4165 61.5 26.999V13.5Z" fill="#F9F9FC" stroke="white"/>
<defs>
<clipPath id="clip0_1800_13015">
<rect width="20" height="20" fill="white" transform="translate(10 10)"/>
</clipPath>
</defs>
</svg>
